<svg width="128" height="128" viewBox="0 0 128 128" fill="none" xmlns="http://www.w3.org/2000/svg">
<circle cx="64" cy="64" r="64" fill="black"/>
<path d="M84.68 38.776C85.256 37.432 86.088 36.44 87.176 35.8C88.264 35.096 89.48 34.744 90.824 34.744C92.744 34.744 94.472 35.384 96.008 36.664C97.544 37.944 98.312 39.512 98.312 41.368C98.312 42.328 98.088 43.288 97.64 44.248L71.72 98.968C71.016 100.44 69.96 101.592 68.552 102.424C67.144 103.192 65.608 103.576 63.944 103.576C62.28 103.576 60.744 103.192 59.336 102.424C57.928 101.592 56.872 100.44 56.168 98.968L30.248 44.248C29.8 43.352 29.576 42.424 29.576 41.464C29.576 39.544 30.376 37.944 31.976 36.664C33.576 35.384 35.368 34.744 37.352 34.744C38.696 34.744 39.912 35.096 41 35.8C42.152 36.44 43.016 37.432 43.592 38.776L64.136 83.704L84.68 38.776Z" fill="white"/>
</svg>
